<svg xmlns="http://www.w3.org/2000/svg" viewBox="0 0 1024 1024" width="30" height="30" ><path d="M517 565.5c-26.6-14-53.1-28.1-79.7-42.1-42.1-22.2-84.2-44.5-126.3-66.7-9.6-5.1-19.3-10.2-28.9-15.3 1.7 2.9 3.3 5.8 5 8.6V202.1c-5 2.9-10 5.8-15 8.6 26.6 14 53.1 28.1 79.7 42.1 42.1 22.3 84.2 44.5 126.3 66.8 9.6 5.1 19.3 10.2 28.9 15.3-1.7-2.9-3.3-5.8-5-8.6v247.8c0 12.9 20 12.9 20 0V326.3c0-3.4-1.9-7-5-8.6-26.6-14-53.1-28.1-79.7-42.1-42.1-22.3-84.2-44.5-126.3-66.8-9.6-5.1-19.3-10.2-28.9-15.3-6.6-3.5-15 .8-15 8.6V450c0 3.4 1.9 7 5 8.6 26.6 14 53.1 28.1 79.7 42.1 42.1 22.2 84.2 44.5 126.3 66.7 9.6 5.1 19.3 10.2 28.9 15.3 11.3 6 21.4-11.2 10-17.2z"/><path d="M742 441.4c-26.6 14-53.1 28.1-79.7 42.1-42.1 22.2-84.3 44.5-126.4 66.7-9.6 5.1-19.3 10.2-28.9 15.3 5 2.9 10 5.8 15 8.6V326.3c-1.7 2.9-3.3 5.8-5 8.6 26.6-14 53.1-28.1 79.7-42.1 42.1-22.3 84.3-44.5 126.4-66.8 9.6-5.1 19.3-10.2 28.9-15.3-5-2.9-10-5.8-15-8.6V450c0 12.9 20 12.9 20 0V202.1c0-7.8-8.4-12.1-15-8.6-26.6 14-53.1 28.1-79.7 42.1-42.1 22.3-84.3 44.5-126.4 66.8-9.6 5.1-19.3 10.2-28.9 15.3-3.1 1.6-5 5.2-5 8.6v247.8c0 7.8 8.4 12.1 15 8.6 26.6-14 53.1-28.1 79.7-42.1 42.1-22.2 84.3-44.5 126.4-66.7 9.6-5.1 19.3-10.2 28.9-15.3 11.4-6 1.3-23.3-10-17.2z"/><path d="M742 193.4c-26.6 14-53.1 28.1-79.7 42.1-42.1 22.3-84.3 44.5-126.4 66.8-9.6 5.1-19.3 10.2-28.9 15.3h10.1c-26.6-14-53.1-28.1-79.7-42.1-42.1-22.3-84.2-44.5-126.3-66.8-9.6-5.1-19.3-10.2-28.9-15.3v17.3c26.6-14 53.1-28 79.7-42.1 42.1-22.2 84.2-44.5 126.3-66.7 9.6-5.1 19.3-10.2 28.9-15.3H507c26.6 14 53.1 28 79.7 42.1 42.1 22.2 84.3 44.5 126.4 66.7 9.6 5.1 19.3 10.2 28.9 15.3 11.4 6 21.5-11.3 10.1-17.3-26.8-14.2-53.7-28.3-80.5-42.5-42.1-22.3-84.3-44.5-126.4-66.8-9.2-4.9-18.4-10.1-27.8-14.7-5.4-2.6-9.2-.8-13.6 1.6-4.8 2.5-9.6 5-14.3 7.6-40.2 21.2-80.3 42.4-120.5 63.6-31.7 16.8-64 32.8-95.3 50.3-.5.3-1 .5-1.5.8-6.5 3.4-6.5 13.8 0 17.3 26.8 14.2 53.7 28.4 80.5 42.5 42.1 22.3 84.3 44.5 126.4 66.8 9.2 4.9 18.4 10.1 27.8 14.7 5.4 2.6 9.2.8 13.7-1.6 4.8-2.5 9.6-5.1 14.3-7.6 40.2-21.2 80.3-42.4 120.5-63.7 31.7-16.8 64-32.8 95.3-50.3.5-.3 1-.5 1.5-.8 11.2-5.9 1.1-23.2-10.2-17.2z"/><path d="M624.4 131.4c-26.5 14-53.1 28.1-79.6 42.1-42.1 22.3-84.2 44.5-126.3 66.8-9.6 5.1-19.3 10.2-28.9 15.3-11.4 6-1.3 23.3 10.1 17.3 26.5-14 53.1-28.1 79.6-42.1 42.1-22.3 84.2-44.5 126.3-66.8 9.6-5.1 19.3-10.2 28.9-15.3 11.4-6 1.3-23.3-10.1-17.3zM282 937.4c-26.5-14-53.1-28-79.6-42-42.1-22.2-84.2-44.5-126.3-66.7-9.6-5.1-19.3-10.2-28.9-15.3 1.7 2.9 3.3 5.8 5 8.6V574.2c-5 2.9-10 5.8-15 8.6 26.5 14 53.1 28.1 79.6 42.1 42.1 22.3 84.2 44.5 126.3 66.8 9.6 5.1 19.3 10.2 28.9 15.3-1.7-2.9-3.3-5.8-5-8.6V946.1c0 12.9 20 12.9 20 0V698.4c0-3.4-1.9-7-5-8.6-26.5-14-53.1-28.1-79.6-42.1-42.1-22.3-84.2-44.5-126.3-66.8-9.6-5.1-19.3-10.2-28.9-15.3-6.6-3.5-15 .8-15 8.6V822c0 3.4 1.9 7 5 8.6 26.5 14 53.1 28 79.6 42 42.1 22.2 84.2 44.5 126.3 66.7 9.6 5.1 19.3 10.2 28.9 15.3 11.3 6.1 21.4-11.2 10-17.2z"/><path d="M507 813.4c-26.6 14-53.1 28-79.7 42-42.1 22.2-84.3 44.5-126.4 66.7-9.6 5.1-19.3 10.2-28.9 15.3 5 2.9 10 5.8 15 8.6V698.3c-1.7 2.9-3.3 5.8-5 8.6 26.6-14 53.1-28.1 79.7-42.1 42.1-22.3 84.3-44.5 126.4-66.8 9.6-5.1 19.3-10.2 28.9-15.3-5-2.9-10-5.8-15-8.6V822c0 12.9 20 12.9 20 0V574.1c0-7.8-8.4-12.1-15-8.6-26.6 14-53.1 28.1-79.7 42.1-42.1 22.3-84.3 44.5-126.4 66.8-9.6 5.1-19.3 10.2-28.9 15.3-3.1 1.6-5 5.2-5 8.6V946c0 7.8 8.4 12.1 15 8.6 26.6-14 53.1-28 79.7-42 42.1-22.2 84.3-44.5 126.4-66.7 9.6-5.1 19.3-10.2 28.9-15.3 11.4-6 1.3-23.2-10-17.2z"/><path d="M507 565.5c-26.6 14-53.1 28.1-79.7 42.1-42.1 22.3-84.3 44.5-126.4 66.8-9.6 5.1-19.3 10.2-28.9 15.3h10.1c-26.5-14-53.1-28.1-79.6-42.1-42.1-22.3-84.2-44.5-126.3-66.8-9.6-5.1-19.3-10.2-28.9-15.3v17.3c26.6-14 53.1-28.1 79.7-42.1 42.1-22.3 84.2-44.5 126.3-66.8 9.6-5.1 19.3-10.2 28.9-15.3h-10.1c26.6 14 53.1 28.1 79.7 42.1 42.1 22.2 84.2 44.5 126.3 66.7 9.6 5.1 19.3 10.2 28.9 15.3 11.4 6 21.5-11.2 10.1-17.3-26.8-14.2-53.7-28.3-80.5-42.5-42.1-22.3-84.3-44.5-126.4-66.8-9.2-4.9-18.4-10.1-27.8-14.7-5.4-2.6-9.2-.8-13.6 1.6-4.8 2.5-9.6 5.1-14.3 7.6-40.2 21.2-80.3 42.5-120.5 63.7-31.7 16.8-64 32.8-95.3 50.4-.5.3-1 .5-1.5.8-6.5 3.4-6.5 13.8 0 17.3 26.8 14.2 53.7 28.4 80.5 42.5 42.1 22.3 84.2 44.5 126.4 66.8 9.2 4.9 18.4 10.1 27.8 14.7 5.4 2.6 9.2.8 13.7-1.6 4.8-2.5 9.6-5.1 14.3-7.6 40.2-21.2 80.3-42.5 120.5-63.7 31.7-16.8 64-32.8 95.3-50.4.5-.3 1-.5 1.5-.8 11.2-6 1.1-23.3-10.2-17.2z"/><path d="M389.4 503.6c-26.5 14-53.1 28.1-79.6 42.1-42.1 22.3-84.2 44.5-126.3 66.8-9.6 5.1-19.3 10.2-28.9 15.3-11.4 6-1.3 23.3 10.1 17.3 26.5-14 53.1-28.1 79.6-42.1 42.1-22.3 84.2-44.5 126.3-66.8 9.6-5.1 19.3-10.2 28.9-15.3 11.4-6.1 1.3-23.4-10.1-17.3zM752.1 937.4c-26.6-14-53.1-28-79.7-42-42.1-22.2-84.3-44.5-126.4-66.7-9.6-5.1-19.3-10.2-28.9-15.3 1.7 2.9 3.3 5.8 5 8.6V574.1c-5 2.9-10 5.8-15 8.6 26.6 14 53.1 28.1 79.7 42.1 42.1 22.3 84.3 44.5 126.4 66.8 9.6 5.1 19.3 10.2 28.9 15.3-1.7-2.9-3.3-5.8-5-8.6V946c0 12.9 20 12.9 20 0V698.3c0-3.4-1.9-7-5-8.6-26.6-14-53.1-28.1-79.7-42.1-42.1-22.3-84.3-44.5-126.4-66.8-9.6-5.1-19.3-10.2-28.9-15.3-6.6-3.5-15 .8-15 8.6V822c0 3.4 1.9 7 5 8.6 26.6 14 53.1 28 79.7 42 42.1 22.2 84.3 44.5 126.4 66.7 9.6 5.1 19.3 10.2 28.9 15.3 11.2 6.1 21.4-11.2 10-17.2z"/><path d="M976.8 813.4c-26.5 14-53.1 28-79.6 42-42.1 22.2-84.2 44.5-126.3 66.7-9.6 5.1-19.3 10.2-28.9 15.3 5 2.9 10 5.8 15 8.6V698.3c-1.7 2.9-3.3 5.8-5 8.6 26.5-14 53.1-28.1 79.6-42.1 42.1-22.3 84.2-44.5 126.3-66.8 9.6-5.1 19.3-10.2 28.9-15.3-5-2.9-10-5.8-15-8.6v247.8c0 12.9 20 12.9 20 0V574.1c0-7.8-8.4-12.1-15-8.6-26.5 14-53.1 28.1-79.6 42.1-42.1 22.3-84.2 44.5-126.3 66.8-9.6 5.1-19.3 10.2-28.9 15.3-3.1 1.6-5 5.2-5 8.6V946c0 7.8 8.4 12.1 15 8.6 26.5-14 53.1-28 79.6-42 42.1-22.2 84.2-44.5 126.3-66.7 9.6-5.1 19.3-10.2 28.9-15.3 11.5-6 1.4-23.2-10-17.2z"/><path d="M976.8 565.6c-26.5 14-53.1 28.1-79.6 42.1-42.1 22.3-84.2 44.5-126.3 66.8-9.6 5.1-19.3 10.2-28.9 15.3h10.1c-26.6-14-53.1-28.1-79.7-42.1-42.1-22.3-84.3-44.5-126.4-66.8-9.6-5.1-19.3-10.2-28.9-15.3v17.3c26.6-14 53.1-28.1 79.7-42.1 42.1-22.2 84.3-44.5 126.4-66.7 9.6-5.1 19.3-10.2 28.9-15.3H742c26.5 14 53.1 28.1 79.6 42.1 42.1 22.3 84.2 44.5 126.3 66.8 9.6 5.1 19.3 10.2 28.9 15.3 11.4 6 21.5-11.2 10.1-17.3-26.8-14.2-53.7-28.4-80.5-42.6-42.1-22.3-84.2-44.5-126.4-66.8-9.2-4.9-18.4-10.1-27.8-14.7-5.4-2.6-9.2-.8-13.7 1.6-4.8 2.5-9.6 5-14.3 7.6-40.2 21.2-80.3 42.4-120.5 63.6-31.7 16.8-64 32.8-95.3 50.3-.5.3-1 .5-1.5.8-6.5 3.4-6.5 13.8 0 17.3 26.8 14.2 53.7 28.4 80.5 42.6 42.1 22.3 84.3 44.6 126.4 66.8 9.2 4.9 18.4 10.1 27.8 14.7 5.4 2.6 9.2.8 13.6-1.6 4.8-2.5 9.6-5.1 14.3-7.6 40.1-21.2 80.3-42.4 120.4-63.7 31.7-16.8 64-32.8 95.2-50.3.5-.3 1-.5 1.5-.8 11.7-6.1 1.6-23.4-9.8-17.3z"/><path d="M859.4 503.6c-26.5 14-53.1 28.1-79.6 42.1-42.1 22.3-84.2 44.5-126.3 66.8-9.6 5.1-19.3 10.2-28.9 15.3-11.4 6-1.3 23.3 10.1 17.3 26.5-14 53.1-28.1 79.6-42.1 42.1-22.3 84.2-44.5 126.3-66.8 9.6-5.1 19.3-10.2 28.9-15.3 11.4-6.1 1.3-23.4-10.1-17.3z"/></svg>