<svg className="svg-icon" style="width: 1em; height: 1em;vertical-align: middle;fill: currentColor;overflow: hidden;" viewBox="0 0 1024 1024" version="1.1" xmlns="http://www.w3.org/2000/svg"><path d="M752.655 468.634l-232.24 402.861c-4.53 7.898-12.946 12.686-22.006 12.686h-6.213c-9.709 0-18.641-5.567-22.914-14.239l-193.922-397.811c-10.745-22.006-33.917-35.211-58.254-33.010-74.048 6.732-74.177 36.375-74.177 110.165v384.090c0 14.111 11.393 25.374 25.374 25.374h687.27c14.111 0 25.374-11.393 25.374-25.374v-384.090c0-70.553-2.071-102.269-70.422-109.906-23.301-2.589-46.085 8.932-57.867 29.257zM456.723 451.546c-67.057 37.024-46.346 135.020-46.346 135.020l67.834 205.962c3.495 10.485 13.204 17.476 24.208 17.476v0c11.004 0 20.714-6.991 24.208-17.476l67.834-205.962c0 0 19.677-104.599-34.175-138.387 85.569-28.221 166.090-114.566 166.090-216.576 0-124.923-120.651-226.285-223.567-226.285-102.915 0-223.567 101.233-223.567 226.285-0.13 106.411 87.77 195.993 177.481 219.942z"  /></svg>